<?xml version="1.0" encoding="UTF-8" standalone="no"?>
<svg
   width="108"
   height="108"
   viewBox="0 0 108 108"
   fill="none"
   version="1.1"
   id="svg3"
   xmlns="http://www.w3.org/2000/svg">
  <path
     style="filter:url(#filter0_d_21426_73);fill:#072100;fill-opacity:1"
     d="M 54,90 38.8636,74.8636 47.0455,66.6818 54,73.6364 l 6.9545,-6.9546 8.1819,8.1818 z"
     id="bottom_arrow" />
  <path
     style="filter:url(#filter0_d_21426_73);fill:#072100;fill-opacity:1"
     d="M 74.8636,69.1364 66.6818,60.9545 73.6364,54 66.6818,47.0455 74.8636,38.8636 90,54 Z"
     id="right_arrow" />
  <path
     style="filter:url(#filter0_d_21426_73);fill:#072100;fill-opacity:1"
     d="M 33.1364,69.1364 18,54 33.1364,38.8636 41.3182,47.0455 34.3636,54 l 6.9546,6.9545 z"
     id="left_arrow" />
  <path
     style="filter:url(#filter0_d_21426_73);stroke:none;stroke-opacity:1;fill:#072100;fill-opacity:1"
     d="M 47.0455,41.3182 38.8636,33.1364 54,18 69.1364,33.1364 60.9545,41.3182 54,34.3636 Z"
     id="top_arrow" />
  <path
     style="filter:url(#filter0_d_21426_73);fill:#072100;fill-opacity:1"
     d="M 54,60.5455 47.4545,54 54,47.4545 60.5455,54 Z"
     id="center" />
  <defs
     id="defs3">
    <filter
       id="filter0_d_21426_73"
       x="17"
       y="18"
       width="74"
       height="74"
       filterUnits="userSpaceOnUse"
       color-interpolation-filters="sRGB">
      <feFlood
         flood-opacity="0"
         result="BackgroundImageFix"
         id="feFlood1" />
      <feColorMatrix
         in="SourceAlpha"
         type="matrix"
         values="0 0 0 0 0 0 0 0 0 0 0 0 0 0 0 0 0 0 127 0"
         result="hardAlpha"
         id="feColorMatrix1" />
      <feOffset
         dy="1"
         id="feOffset1" />
      <feGaussianBlur
         stdDeviation="0.5"
         id="feGaussianBlur1" />
      <feComposite
         in2="hardAlpha"
         operator="out"
         id="feComposite1" />
      <feColorMatrix
         type="matrix"
         values="0 0 0 0 0 0 0 0 0 0 0 0 0 0 0 0 0 0 0.25 0"
         id="feColorMatrix2" />
      <feBlend
         mode="normal"
         in2="BackgroundImageFix"
         result="effect1_dropShadow_21426_73"
         id="feBlend2" />
      <feBlend
         mode="normal"
         in="SourceGraphic"
         in2="effect1_dropShadow_21426_73"
         result="shape"
         id="feBlend3" />
    </filter>
  </defs>
</svg>
